# xmcd
# 
# Track frame offsets:
#     150
#     17858
#     34639
#     51451
#     68411
#     83663
#     97066
#     111814
#     129642
#     143707
#     161206
#     177912
#     193186
#     210015
#     226409
#     243478
#     258292
#     275739
#     290864
#     306606
# 
# Disc length: 4287
# 
# Revision: 14
# Processed by: cddbd v1.5.2PL0 Copyright (c) Steve Scherf et al.
# Submitted via: fre:ac v1.0.17
# 
DISCID=2c10bd14
DTITLE=Various Artist - Bravo Hits 31
DYEAR=0
DGENRE=Pop
TTITLE0=Craig David - 7 Days
TTITLE1=Spiller - Groovejet (If This Ain't Love)
TTITLE2=Music Instructor Feat. Dean - Super Fly (Upper MC)
TTITLE3=Darude - Sandstorm
TTITLE4=Mauro Picotto - Komodo - Save A Soul
TTITLE5=Elektrochemie LK - Schall
TTITLE6=Future Breeze - Smile
TTITLE7=Delerium Feat. Sarah McLachlan - Silence
TTITLE8=X-Perience - Island Of Dreams
TTITLE9=Baby D. - Let Me Be Your Fantasy
TTITLE10=Modjo - Lady (Hear Me Tonight)
TTITLE11=Lace - Ring Ring
TTITLE12=ATB Feat. York - The Fields Of Love
TTITLE13=Rollergirl - Superstar
TTITLE14=Cherubia - Devil In Disguise
TTITLE15=Bomfunk MC's - B-Boys and Fly Girls
TTITLE16=Dynamite Deluxe - Grüne Brille
TTITLE17=Papa Roach - Last Resort
TTITLE18=Die Toten Hosen - Warum werde ich nicht satt?
TTITLE19=Stefan Raab Feat. DJ Bundeskanzler - Hol mir ma ne Flasche Bier
EXTD=
EXTT0=
EXTT1=
EXTT2=
EXTT3=
EXTT4=
EXTT5=
EXTT6=
EXTT7=
EXTT8=
EXTT9=
EXTT10=
EXTT11=
EXTT12=
EXTT13=
EXTT14=
EXTT15=
EXTT16=
EXTT17=
EXTT18=
EXTT19=
PLAYORDER=
